<svg width="28" height="28" viewBox="0 0 28 28" fill="none" xmlns="http://www.w3.org/2000/svg">
<rect width="28" height="28" rx="14" fill="#13B97D"/>
<path opacity="0.4" d="M16.7998 12.25H11.1998C9.33317 12.25 8.1665 13.4167 8.1665 15.2833V16.7942C8.1665 18.6667 9.33317 19.8333 11.1998 19.8333H16.794C18.6607 19.8333 19.8273 18.6667 19.8273 16.8V15.2833C19.8332 13.4167 18.6665 12.25 16.7998 12.25Z" fill="white"/>
<path d="M16.2634 14.2508L14.3092 16.205C14.1401 16.3742 13.8601 16.3742 13.6909 16.205L11.7367 14.2508C11.5676 14.0817 11.5676 13.8017 11.7367 13.6325C11.9059 13.4633 12.1859 13.4633 12.3551 13.6325L13.5626 14.84V8.60416C13.5626 8.36499 13.7609 8.16666 14.0001 8.16666C14.2392 8.16666 14.4376 8.36499 14.4376 8.60416V14.84L15.6451 13.6325C15.7326 13.545 15.8434 13.5042 15.9542 13.5042C16.0651 13.5042 16.1759 13.545 16.2634 13.6325C16.4384 13.8017 16.4384 14.0758 16.2634 14.2508Z" fill="white"/>
</svg>
