<svg width="28" height="28" viewBox="0 0 28 28" fill="none" xmlns="http://www.w3.org/2000/svg">
<rect width="28" height="28" rx="14" fill="#FE5656"/>
<path opacity="0.4" d="M16.8001 12.25H11.2001C9.33341 12.25 8.16675 13.4167 8.16675 15.2833V16.7942C8.16675 18.6667 9.33341 19.8333 11.2001 19.8333H16.7942C18.6609 19.8333 19.8276 18.6667 19.8276 16.8V15.2833C19.8334 13.4167 18.6667 12.25 16.8001 12.25Z" fill="white"/>
<path d="M16.2634 10.2492L14.3092 8.29501C14.1401 8.12584 13.8601 8.12584 13.6909 8.29501L11.7367 10.2492C11.5676 10.4183 11.5676 10.6983 11.7367 10.8675C11.9059 11.0367 12.1859 11.0367 12.3551 10.8675L13.5626 9.66001V15.8958C13.5626 16.135 13.7609 16.3333 14.0001 16.3333C14.2392 16.3333 14.4376 16.135 14.4376 15.8958V9.66001L15.6451 10.8675C15.7326 10.955 15.8434 10.9958 15.9542 10.9958C16.0651 10.9958 16.1759 10.955 16.2634 10.8675C16.4384 10.6983 16.4384 10.4242 16.2634 10.2492Z" fill="white"/>
</svg>
